<?xml version="1.0" encoding="utf-8"?>
<!-- Generator: Adobe Illustrator 24.2.1, SVG Export Plug-In . SVG Version: 6.00 Build 0)  -->
<svg version="1.1" id="Signature" xmlns="http://www.w3.org/2000/svg" xmlns:xlink="http://www.w3.org/1999/xlink" x="0px" y="0px"
	 viewBox="0 0 248.445 106.171" style="enable-background:new 0 0 248.445 106.171;" xml:space="preserve">
<style type="text/css">
	.st0{fill-rule:evenodd;clip-rule:evenodd;fill:none;}
	.st1{fill-rule:evenodd;clip-rule:evenodd;}
	.st2{fill-rule:evenodd;clip-rule:evenodd;fill:#FFFFFF;}
</style>
<g>
	<g>
		<rect class="st0" width="248.445" height="106.171"/>
	</g>
</g>
<g>
	<g>
		<g>
			<path d="M102.984,82.128l-0.002-13.111h-0.1c-0.465,0.43-2.189,0.465-2.918,0.465h-1.268v0.105
				c1.465,0.9,1.264,2.227,1.264,3.879l0.002,5.549c0,2.775-2.725,4.721-4.92,4.721c-2.896,0-4.096-2.055-4.096-5.369v-9.35h-0.1
				c-0.467,0.43-2.199,0.465-2.932,0.465h-1.254v0.107c1.461,0.898,1.264,2.225,1.264,3.877v5.529c0,5.063,2.195,7.467,6.119,7.467
				c2.326,0,4.719-0.826,5.918-2.799v2.391h4.283v-0.105C102.783,85.118,102.984,83.784,102.984,82.128z"/>
			<path d="M109.629,75.116c0.4-2.252,2.064-3.682,4.293-3.682c2.396,0,3.926,1.182,4.293,3.682H109.629z M121.709,77.206
				c0.131-4.627-2.965-8.117-7.488-8.117c-4.957,0-8.316,3.598-8.316,8.588c0,5.029,3.891,8.857,9.549,8.857
				c1.564,0,3.162-0.248,4.592-0.891l1.664-3.373h-0.102c-1.529,1.301-3.459,1.916-5.457,1.916c-3.758,0-6.588-2.568-6.654-6.98
				H121.709z"/>
			<path d="M124.35,61.401c0.797,0,2.422-0.051,2.914-0.535h0.098v22.707c0.893,0.25,1.82,0.43,2.746,0.43
				c3.635,0,5.719-2.543,5.719-6.088c0-3.477-1.619-6.16-4.959-6.16c-1.057,0-1.883,0.285-2.777,0.787l1.785-3.059
				c0.76-0.287,1.555-0.394,2.348-0.394c3.771,0,6.977,3.273,6.977,8.182c0,5.621-3.803,9.258-9.82,9.258
				c-2.248,0-4.406-0.396-6.035-0.65v-0.107c1.098-0.504,0.998-1.695,0.998-2.879V66.386c0-1.658,0.201-3.977-1.23-4.877v-0.107
				H124.35z"/>
			<path d="M145.105,75.116c0.402-2.252,2.062-3.682,4.295-3.682c2.396,0,3.926,1.182,4.293,3.682H145.105z M157.186,77.206
				c0.137-4.627-2.961-8.117-7.486-8.117c-4.961,0-8.318,3.598-8.318,8.588c0,5.029,3.893,8.857,9.549,8.857
				c1.566,0,3.164-0.248,4.594-0.891l1.662-3.373h-0.098c-1.531,1.301-3.461,1.916-5.459,1.916c-3.762,0-6.588-2.568-6.654-6.98
				H157.186z"/>
			<path d="M172.07,73.2h-0.1c-0.967-1.188-2.563-1.766-4.061-1.766c-3.227,0-5.555,2.451-5.555,5.873
				c0,4.143,3.225,6.879,6.92,6.879c1.697,0,3.56-0.721,4.857-1.766h0.102l-1.729,3.4c-1.402,0.57-2.932,0.713-4.398,0.713
				c-5.123,0-9.127-3.607-9.127-8.291c0-6.193,4.473-9.154,9.494-9.154c1.201,0,2.432,0.141,3.596,0.426V73.2z"/>
			<path class="st1" d="M117.557,66.116c0-1.674,0-3.604,0-3.604c-2.18,0.979-4.205,2.807-5.559,4.586v1.402
				C115.236,66.319,117.557,66.218,117.557,66.116z"/>
			<path d="M72.965,84.058c-5.023,0-8.52-5.67-8.52-10.486c0-0.049,0-0.494,0-0.541c0.064-4.666,3.084-9.043,8.355-9.043
				c5.547,0,8.406,5.248,8.451,10.219c0,0.039,0,0.477,0,0.518C81.252,80.021,77.959,84.058,72.965,84.058z M90.191,89.567
				c-3.713,0.607-7.277-0.563-11.068-4.898c3.66-1.838,5.924-6.414,5.924-10.666c0-0.043,0-0.486,0-0.527
				C84.98,66.198,79.518,61.394,73,61.394c-6.529,0-12.299,5.002-12.348,12.334c0,0.033,0,0.461,0,0.49
				c0,7.137,5.291,12.432,11.781,12.432c0.932,0,1.832-0.142,2.729-0.359c4.25,3.982,8.039,5.678,11.312,5.283
				c1.555-0.186,3.193-0.805,4.18-2.084L90.191,89.567z"/>
		</g>
	</g>
	<g>
		<g>
			<path d="M27.133,20.559L26.6,22.232c-0.62-0.281-1.27-0.421-1.947-0.421c-1.058,0-1.587,0.293-1.587,0.88
				c0,0.298,0.289,0.579,0.868,0.843c0.876,0.397,1.413,0.669,1.612,0.818c0.579,0.43,0.868,1.004,0.868,1.724
				c0,1.042-0.426,1.835-1.277,2.381c-0.719,0.471-1.629,0.707-2.728,0.707c-1.034,0-1.992-0.157-2.877-0.471l0.496-1.773
				c0.711,0.355,1.389,0.533,2.034,0.533c0.471,0,0.872-0.066,1.203-0.199c0.463-0.19,0.694-0.483,0.694-0.88
				c0-0.388-0.285-0.71-0.856-0.967c-0.992-0.438-1.529-0.682-1.612-0.732c-0.57-0.396-0.856-0.963-0.856-1.699
				c0-0.917,0.389-1.632,1.166-2.145c0.67-0.438,1.488-0.657,2.455-0.657C25.479,20.174,26.438,20.302,27.133,20.559z"/>
			<path d="M33.94,26.35h-4.576c0.083,0.917,0.628,1.376,1.637,1.376c0.711,0,1.434-0.161,2.17-0.483l-0.248,1.575
				c-0.769,0.24-1.554,0.36-2.356,0.36c-0.959,0-1.724-0.256-2.294-0.769c-0.603-0.537-0.905-1.277-0.905-2.22
				c0-1.157,0.38-2.087,1.141-2.789c0.727-0.678,1.674-1.017,2.84-1.017c0.876,0,1.552,0.24,2.027,0.719
				c0.475,0.479,0.713,1.158,0.713,2.034C34.089,25.498,34.039,25.903,33.94,26.35z M32.242,25.122
				c0.017-0.124,0.025-0.223,0.025-0.297c0-0.347-0.099-0.626-0.298-0.837c-0.198-0.211-0.471-0.316-0.818-0.316
				c-0.38,0-0.707,0.153-0.98,0.459c-0.24,0.256-0.414,0.587-0.52,0.992H32.242z"/>
			<path d="M40.897,22.828l-0.508,1.538c-0.471-0.223-0.926-0.334-1.364-0.334c-0.57,0-1.042,0.165-1.414,0.496
				c-0.372,0.33-0.558,0.777-0.558,1.339c0,0.488,0.151,0.87,0.453,1.147c0.302,0.277,0.701,0.416,1.197,0.416
				c0.396,0,0.818-0.099,1.265-0.297l-0.26,1.686c-0.669,0.174-1.277,0.261-1.823,0.261c-0.935,0-1.695-0.265-2.282-0.794
				c-0.587-0.529-0.88-1.252-0.88-2.17c0-1.149,0.393-2.063,1.178-2.74c0.744-0.645,1.699-0.967,2.864-0.967
				C39.491,22.406,40.203,22.547,40.897,22.828z"/>
			<path d="M46.625,22.555l-0.496,1.86c-0.414-0.116-0.736-0.174-0.967-0.174c-0.537,0-0.951,0.203-1.24,0.608
				c-0.207,0.29-0.376,0.744-0.508,1.364l-0.595,2.753h-2.232l1.302-6.398h2.021l-0.235,1.165c0.612-0.876,1.314-1.314,2.108-1.314
				C46.03,22.419,46.311,22.464,46.625,22.555z"/>
			<path d="M52.949,26.35h-4.575c0.082,0.917,0.628,1.376,1.637,1.376c0.711,0,1.434-0.161,2.17-0.483l-0.248,1.575
				c-0.769,0.24-1.554,0.36-2.356,0.36c-0.959,0-1.724-0.256-2.294-0.769c-0.604-0.537-0.905-1.277-0.905-2.22
				c0-1.157,0.38-2.087,1.141-2.789c0.728-0.678,1.674-1.017,2.84-1.017c0.876,0,1.552,0.24,2.027,0.719
				c0.475,0.479,0.713,1.158,0.713,2.034C53.098,25.498,53.049,25.903,52.949,26.35z M51.25,25.122
				c0.017-0.124,0.025-0.223,0.025-0.297c0-0.347-0.099-0.626-0.297-0.837c-0.199-0.211-0.471-0.316-0.819-0.316
				c-0.38,0-0.707,0.153-0.979,0.459c-0.24,0.256-0.413,0.587-0.521,0.992H51.25z M49.118,21.563l1.19-1.637h2.319v0.273
				l-2.046,1.513h-1.463V21.563z"/>
			<path d="M58.033,20.46l-0.458,2.133h1.575l-0.322,1.525h-1.575c-0.116,0.461-0.231,0.919-0.347,1.372
				c-0.141,0.568-0.211,1.034-0.211,1.396c0,0.437,0.231,0.655,0.694,0.655c0.19,0,0.434-0.038,0.731-0.112l-0.322,1.514
				c-0.529,0.09-0.938,0.136-1.228,0.136c-0.637,0-1.137-0.161-1.5-0.483c-0.389-0.338-0.583-0.821-0.583-1.447
				c0-0.413,0.07-0.919,0.211-1.521c0.116-0.503,0.235-1.006,0.359-1.509h-1.302l0.322-1.525h1.302l0.322-1.513L58.033,20.46z"/>
			<path d="M65.064,28.966h-1.848l0.124-0.967c-0.496,0.736-1.232,1.103-2.207,1.103c-0.612,0-1.112-0.161-1.5-0.483
				C59.211,28.272,59,27.8,59,27.205c0-0.852,0.422-1.471,1.268-1.86c0.638-0.298,1.475-0.447,2.511-0.447
				c0.34,0,0.68,0.017,1.02,0.05v-0.211c0.041-0.661-0.368-0.992-1.228-0.992c-0.744,0-1.438,0.161-2.083,0.483l0.26-1.488
				c0.695-0.248,1.401-0.372,2.121-0.372c0.793,0,1.451,0.141,1.972,0.421c0.661,0.347,0.992,0.885,0.992,1.612
				c0,0.554-0.111,1.314-0.334,2.281C65.242,27.759,65.097,28.52,65.064,28.966z M63.526,26.052
				c-0.149-0.017-0.36-0.025-0.632-0.025c-1.207,0-1.81,0.331-1.81,0.992c0,0.223,0.079,0.399,0.236,0.527
				c0.157,0.128,0.351,0.192,0.583,0.192c0.438,0,0.81-0.178,1.116-0.533C63.29,26.899,63.46,26.515,63.526,26.052z"/>
			<path d="M72.392,22.555l-0.496,1.86c-0.413-0.116-0.736-0.174-0.967-0.174c-0.538,0-0.951,0.203-1.24,0.608
				c-0.206,0.29-0.376,0.744-0.508,1.364l-0.595,2.753h-2.232l1.302-6.398h2.021l-0.236,1.165c0.612-0.876,1.314-1.314,2.108-1.314
				C71.797,22.419,72.078,22.464,72.392,22.555z"/>
			<path d="M73.409,22.58h2.17l-1.389,6.386h-2.17L73.409,22.58z M73.855,20.36h2.182l-0.223,1.141h-2.17L73.855,20.36z"/>
			<path d="M82.002,28.966h-1.848l0.124-0.967c-0.496,0.736-1.232,1.103-2.207,1.103c-0.612,0-1.112-0.161-1.5-0.483
				c-0.421-0.347-0.632-0.818-0.632-1.414c0-0.852,0.422-1.471,1.268-1.86c0.638-0.298,1.475-0.447,2.511-0.447
				c0.34,0,0.68,0.017,1.02,0.05v-0.211c0.041-0.661-0.368-0.992-1.228-0.992c-0.744,0-1.438,0.161-2.083,0.483l0.261-1.488
				c0.694-0.248,1.401-0.372,2.12-0.372c0.794,0,1.451,0.141,1.972,0.421c0.661,0.347,0.992,0.885,0.992,1.612
				c0,0.554-0.112,1.314-0.335,2.281C82.18,27.759,82.035,28.52,82.002,28.966z M80.464,26.052
				c-0.149-0.017-0.359-0.025-0.632-0.025c-1.207,0-1.811,0.331-1.811,0.992c0,0.223,0.079,0.399,0.236,0.527
				c0.157,0.128,0.351,0.192,0.582,0.192c0.438,0,0.81-0.178,1.116-0.533C80.229,26.899,80.398,26.515,80.464,26.052z"/>
			<path d="M87.78,20.46l-0.458,2.133h1.575l-0.323,1.525h-1.575c-0.116,0.461-0.231,0.919-0.347,1.372
				c-0.141,0.568-0.21,1.034-0.21,1.396c0,0.437,0.231,0.655,0.694,0.655c0.19,0,0.434-0.038,0.731-0.112l-0.322,1.514
				c-0.529,0.09-0.938,0.136-1.227,0.136c-0.637,0-1.137-0.161-1.501-0.483c-0.389-0.338-0.583-0.821-0.583-1.447
				c0-0.413,0.07-0.919,0.211-1.521c0.116-0.503,0.235-1.006,0.359-1.509h-1.302l0.322-1.525h1.302l0.322-1.513L87.78,20.46z"/>
			<path d="M98.506,28.966h-1.848l0.124-0.967c-0.496,0.736-1.232,1.103-2.208,1.103c-0.612,0-1.112-0.161-1.5-0.483
				c-0.422-0.347-0.633-0.818-0.633-1.414c0-0.852,0.423-1.471,1.268-1.86c0.638-0.298,1.476-0.447,2.511-0.447
				c0.34,0,0.68,0.017,1.02,0.05v-0.211c0.042-0.661-0.368-0.992-1.228-0.992c-0.744,0-1.438,0.161-2.083,0.483l0.26-1.488
				c0.694-0.248,1.401-0.372,2.121-0.372c0.793,0,1.451,0.141,1.972,0.421c0.661,0.347,0.992,0.885,0.992,1.612
				c0,0.554-0.111,1.314-0.335,2.281C98.684,27.759,98.539,28.52,98.506,28.966z M96.969,26.052
				c-0.149-0.017-0.36-0.025-0.633-0.025c-1.207,0-1.81,0.331-1.81,0.992c0,0.223,0.078,0.399,0.235,0.527
				c0.157,0.128,0.352,0.192,0.583,0.192c0.438,0,0.81-0.178,1.116-0.533C96.733,26.899,96.902,26.515,96.969,26.052z"/>
			<path d="M100.961,22.592h2.232c-0.149,0.637-0.302,1.277-0.459,1.922c-0.191,0.827-0.285,1.463-0.285,1.91
				c0,0.637,0.281,0.955,0.843,0.955c0.851,0,1.426-0.698,1.724-2.095l0.57-2.691h2.232l-1.364,6.374h-1.997l0.248-1.079
				c-0.727,0.827-1.538,1.24-2.43,1.24c-0.678,0-1.195-0.198-1.55-0.595c-0.356-0.396-0.533-0.938-0.533-1.625
				c0-0.587,0.091-1.314,0.273-2.182C100.63,24.014,100.796,23.303,100.961,22.592z"/>
			<path d="M108.773,22.592h2.369l0.682,1.873l1.414-1.873h2.542l-2.679,3.063l1.451,3.311h-2.356l-0.756-2.009l-1.463,2.009h-2.654
				l2.815-3.397L108.773,22.592z"/>
			<path d="M125.116,22.555l-0.496,1.86c-0.414-0.116-0.736-0.174-0.967-0.174c-0.538,0-0.951,0.203-1.24,0.608
				c-0.207,0.29-0.376,0.744-0.509,1.364l-0.595,2.753h-2.232l1.302-6.398h2.021l-0.235,1.165c0.611-0.876,1.315-1.314,2.108-1.314
				C124.521,22.419,124.802,22.464,125.116,22.555z"/>
			<path d="M131.44,26.35h-4.576c0.083,0.917,0.629,1.376,1.637,1.376c0.71,0,1.434-0.161,2.17-0.483l-0.248,1.575
				c-0.769,0.24-1.554,0.36-2.356,0.36c-0.959,0-1.724-0.256-2.294-0.769c-0.604-0.537-0.905-1.277-0.905-2.22
				c0-1.157,0.38-2.087,1.141-2.789c0.728-0.678,1.674-1.017,2.84-1.017c0.876,0,1.552,0.24,2.027,0.719
				c0.475,0.479,0.713,1.158,0.713,2.034C131.589,25.498,131.539,25.903,131.44,26.35z M129.741,25.122
				c0.017-0.124,0.025-0.223,0.025-0.297c0-0.347-0.099-0.626-0.298-0.837c-0.198-0.211-0.471-0.316-0.818-0.316
				c-0.38,0-0.707,0.153-0.979,0.459c-0.24,0.256-0.414,0.587-0.521,0.992H129.741z"/>
			<path d="M133.957,20.373h2.207l-1.86,8.593h-2.207L133.957,20.373z"/>
			<path d="M142.178,28.966h-1.848l0.124-0.967c-0.496,0.736-1.232,1.103-2.207,1.103c-0.612,0-1.112-0.161-1.501-0.483
				c-0.421-0.347-0.632-0.818-0.632-1.414c0-0.852,0.422-1.471,1.268-1.86c0.638-0.298,1.475-0.447,2.511-0.447
				c0.34,0,0.68,0.017,1.02,0.05v-0.211c0.041-0.661-0.368-0.992-1.228-0.992c-0.744,0-1.438,0.161-2.083,0.483l0.261-1.488
				c0.694-0.248,1.401-0.372,2.12-0.372c0.793,0,1.451,0.141,1.972,0.421c0.661,0.347,0.992,0.885,0.992,1.612
				c0,0.554-0.112,1.314-0.335,2.281C142.356,27.759,142.211,28.52,142.178,28.966z M140.641,26.052
				c-0.149-0.017-0.359-0.025-0.632-0.025c-1.207,0-1.811,0.331-1.811,0.992c0,0.223,0.079,0.399,0.236,0.527
				c0.157,0.128,0.351,0.192,0.583,0.192c0.438,0,0.81-0.178,1.116-0.533C140.405,26.899,140.574,26.515,140.641,26.052z"/>
			<path d="M147.956,20.46l-0.459,2.133h1.575l-0.323,1.525h-1.575c-0.116,0.461-0.231,0.919-0.347,1.372
				c-0.141,0.568-0.211,1.034-0.211,1.396c0,0.437,0.231,0.655,0.694,0.655c0.19,0,0.434-0.038,0.732-0.112l-0.323,1.514
				c-0.529,0.09-0.938,0.136-1.228,0.136c-0.637,0-1.137-0.161-1.5-0.483c-0.389-0.338-0.583-0.821-0.583-1.447
				c0-0.413,0.07-0.919,0.211-1.521c0.116-0.503,0.235-1.006,0.359-1.509h-1.302l0.322-1.525h1.302l0.323-1.513L147.956,20.46z"/>
			<path d="M150.374,22.58h2.17l-1.389,6.386h-2.17L150.374,22.58z M150.821,20.36h2.182l-0.223,1.141h-2.17L150.821,20.36z"/>
			<path d="M157.182,22.419c0.992,0,1.782,0.248,2.369,0.744c0.628,0.538,0.942,1.29,0.942,2.257c0,1.165-0.405,2.087-1.215,2.765
				c-0.752,0.645-1.724,0.967-2.914,0.967c-0.967,0-1.744-0.24-2.331-0.719c-0.628-0.521-0.942-1.252-0.942-2.195
				c0-1.199,0.389-2.141,1.165-2.827C154.991,22.75,155.967,22.419,157.182,22.419z M158.248,25.32c0-0.405-0.095-0.736-0.285-0.992
				c-0.215-0.297-0.517-0.446-0.905-0.446c-0.529,0-0.959,0.265-1.29,0.793c-0.281,0.463-0.421,0.976-0.421,1.538
				c0,0.389,0.104,0.719,0.31,0.992c0.232,0.297,0.537,0.446,0.918,0.446c0.529,0,0.951-0.269,1.265-0.806
				C158.112,26.391,158.248,25.882,158.248,25.32z"/>
			<path d="M167.734,28.966h-2.22c0.157-0.636,0.31-1.273,0.458-1.91c0.19-0.818,0.286-1.459,0.286-1.922
				c0-0.628-0.269-0.942-0.806-0.942c-0.876,0-1.463,0.694-1.761,2.083l-0.57,2.691h-2.232l1.364-6.435h1.997l-0.248,1.141
				c0.727-0.826,1.538-1.24,2.43-1.24c0.678,0,1.194,0.2,1.55,0.601c0.355,0.401,0.533,0.945,0.533,1.631
				c0,0.587-0.095,1.31-0.285,2.17C168.064,27.544,167.899,28.255,167.734,28.966z"/>
			<path d="M175.112,22.791l-0.483,1.401c-0.719-0.24-1.281-0.36-1.687-0.36c-0.661,0-0.992,0.194-0.992,0.583
				c0,0.215,0.227,0.413,0.682,0.595c0.687,0.273,1.104,0.459,1.253,0.558c0.454,0.306,0.682,0.723,0.682,1.252
				c0,0.777-0.322,1.372-0.967,1.786c-0.545,0.355-1.227,0.533-2.046,0.533c-0.901,0-1.748-0.137-2.542-0.41l0.459-1.538
				c0.587,0.29,1.182,0.434,1.786,0.434c0.744,0,1.116-0.19,1.116-0.57c0-0.248-0.219-0.467-0.657-0.657
				c-0.678-0.289-1.083-0.483-1.215-0.583c-0.438-0.314-0.657-0.752-0.657-1.314c0-0.711,0.343-1.257,1.029-1.637
				c0.562-0.306,1.228-0.459,1.997-0.459C173.545,22.406,174.293,22.535,175.112,22.791z"/>
			<path d="M25.819,41.366h-1.848l0.124-0.967c-0.496,0.736-1.232,1.104-2.208,1.104c-0.612,0-1.112-0.162-1.5-0.484
				c-0.422-0.347-0.633-0.818-0.633-1.414c0-0.851,0.423-1.471,1.268-1.86c0.638-0.298,1.476-0.446,2.511-0.446
				c0.34,0,0.68,0.017,1.02,0.049v-0.211c0.042-0.661-0.368-0.992-1.228-0.992c-0.744,0-1.438,0.161-2.083,0.483l0.26-1.488
				c0.694-0.248,1.401-0.372,2.121-0.372c0.794,0,1.451,0.141,1.972,0.421c0.661,0.347,0.992,0.885,0.992,1.612
				c0,0.554-0.111,1.314-0.335,2.281C25.996,40.159,25.851,40.92,25.819,41.366z M24.281,38.452
				c-0.149-0.016-0.36-0.024-0.633-0.024c-1.207,0-1.81,0.33-1.81,0.992c0,0.223,0.078,0.399,0.235,0.527
				c0.157,0.128,0.352,0.192,0.583,0.192c0.438,0,0.81-0.178,1.116-0.533C24.045,39.299,24.215,38.915,24.281,38.452z"/>
			<path d="M27.716,34.992h2.207l0.496,4.588l2.269-4.588h2.332l-3.745,6.374h-2.492L27.716,34.992z"/>
			<path d="M41.604,38.75h-4.576c0.083,0.917,0.628,1.376,1.637,1.376c0.71,0,1.434-0.161,2.17-0.484l-0.248,1.575
				c-0.769,0.24-1.554,0.36-2.356,0.36c-0.959,0-1.724-0.256-2.294-0.769c-0.604-0.537-0.905-1.277-0.905-2.219
				c0-1.157,0.38-2.087,1.141-2.79c0.728-0.678,1.674-1.017,2.84-1.017c0.876,0,1.552,0.24,2.027,0.719
				c0.475,0.479,0.713,1.158,0.713,2.034C41.752,37.898,41.703,38.303,41.604,38.75z M39.905,37.522
				c0.017-0.124,0.025-0.223,0.025-0.298c0-0.347-0.099-0.626-0.298-0.837c-0.198-0.211-0.471-0.316-0.818-0.316
				c-0.38,0-0.707,0.153-0.979,0.459c-0.24,0.256-0.414,0.587-0.521,0.992H39.905z"/>
			<path d="M48.684,35.228l-0.509,1.537c-0.471-0.224-0.926-0.335-1.364-0.335c-0.57,0-1.042,0.166-1.414,0.496
				c-0.372,0.33-0.558,0.777-0.558,1.339c0,0.488,0.151,0.87,0.453,1.147c0.302,0.277,0.701,0.416,1.197,0.416
				c0.396,0,0.818-0.099,1.265-0.297l-0.26,1.686c-0.67,0.174-1.277,0.261-1.823,0.261c-0.935,0-1.695-0.265-2.282-0.794
				c-0.587-0.529-0.88-1.252-0.88-2.17c0-1.149,0.392-2.063,1.178-2.74c0.744-0.645,1.699-0.967,2.865-0.967
				C47.278,34.806,47.989,34.947,48.684,35.228z"/>
			<path d="M54.239,32.773h2.208l-1.86,8.593h-2.207L54.239,32.773z"/>
			<path d="M63.278,38.75h-4.576c0.083,0.917,0.628,1.376,1.637,1.376c0.711,0,1.435-0.161,2.17-0.484l-0.248,1.575
				c-0.769,0.24-1.554,0.36-2.356,0.36c-0.959,0-1.724-0.256-2.294-0.769c-0.604-0.537-0.905-1.277-0.905-2.219
				c0-1.157,0.38-2.087,1.141-2.79c0.728-0.678,1.674-1.017,2.84-1.017c0.876,0,1.552,0.24,2.027,0.719
				c0.475,0.479,0.713,1.158,0.713,2.034C63.427,37.898,63.377,38.303,63.278,38.75z M61.58,37.522
				c0.017-0.124,0.025-0.223,0.025-0.298c0-0.347-0.099-0.626-0.298-0.837c-0.198-0.211-0.471-0.316-0.818-0.316
				c-0.38,0-0.707,0.153-0.98,0.459c-0.24,0.256-0.414,0.587-0.521,0.992H61.58z"/>
			<path d="M69.962,35.191l-0.483,1.401c-0.719-0.24-1.282-0.359-1.687-0.359c-0.662,0-0.992,0.194-0.992,0.583
				c0,0.215,0.228,0.414,0.682,0.595c0.686,0.273,1.104,0.459,1.253,0.558c0.454,0.306,0.682,0.724,0.682,1.252
				c0,0.777-0.323,1.372-0.967,1.786c-0.546,0.355-1.228,0.533-2.046,0.533c-0.901,0-1.748-0.137-2.542-0.409l0.459-1.538
				c0.587,0.289,1.182,0.434,1.786,0.434c0.744,0,1.116-0.19,1.116-0.571c0-0.248-0.219-0.467-0.657-0.657
				c-0.678-0.289-1.083-0.483-1.215-0.583c-0.438-0.314-0.657-0.752-0.657-1.314c0-0.711,0.343-1.256,1.029-1.637
				c0.562-0.306,1.228-0.459,1.996-0.459C68.395,34.806,69.144,34.935,69.962,35.191z"/>
			<path d="M80.378,41.155l1.612,1.848h-2.616l-0.955-1.426c-1.19,0-2.137-0.302-2.839-0.905c-0.736-0.636-1.104-1.546-1.104-2.728
				c0-1.546,0.438-2.819,1.314-3.819c0.926-1.041,2.149-1.562,3.67-1.562c1.173,0,2.1,0.324,2.777,0.973
				c0.678,0.649,1.017,1.556,1.017,2.722c0,1.066-0.244,2.026-0.732,2.877C82.019,40.01,81.304,40.684,80.378,41.155z
				 M80.886,36.133c0-0.57-0.116-1.029-0.347-1.376c-0.281-0.397-0.69-0.595-1.228-0.595c-0.786,0-1.418,0.451-1.897,1.352
				c-0.405,0.752-0.607,1.558-0.607,2.418c0,0.545,0.12,0.996,0.359,1.352c0.281,0.405,0.682,0.607,1.203,0.607
				c0.777,0,1.409-0.45,1.897-1.352C80.68,37.787,80.886,36.984,80.886,36.133z"/>
			<path d="M84.83,34.992h2.232c-0.149,0.637-0.302,1.277-0.459,1.922c-0.19,0.827-0.285,1.463-0.285,1.91
				c0,0.637,0.281,0.955,0.843,0.955c0.851,0,1.426-0.699,1.724-2.096l0.57-2.691h2.232l-1.364,6.374h-1.997l0.248-1.079
				c-0.728,0.827-1.538,1.24-2.43,1.24c-0.678,0-1.195-0.198-1.55-0.595c-0.355-0.396-0.533-0.938-0.533-1.624
				c0-0.587,0.091-1.314,0.273-2.183C84.498,36.414,84.664,35.703,84.83,34.992z"/>
			<path d="M98.841,38.75h-4.576c0.083,0.917,0.628,1.376,1.637,1.376c0.711,0,1.434-0.161,2.17-0.484l-0.247,1.575
				c-0.769,0.24-1.555,0.36-2.356,0.36c-0.959,0-1.723-0.256-2.294-0.769c-0.604-0.537-0.905-1.277-0.905-2.219
				c0-1.157,0.38-2.087,1.141-2.79c0.727-0.678,1.674-1.017,2.839-1.017c0.877,0,1.552,0.24,2.028,0.719
				c0.475,0.479,0.713,1.158,0.713,2.034C98.99,37.898,98.94,38.303,98.841,38.75z M97.143,37.522
				c0.017-0.124,0.025-0.223,0.025-0.298c0-0.347-0.1-0.626-0.298-0.837c-0.198-0.211-0.471-0.316-0.818-0.316
				c-0.38,0-0.707,0.153-0.979,0.459c-0.24,0.256-0.414,0.587-0.521,0.992H97.143z M95.01,33.963l1.19-1.637h2.319v0.273
				l-2.046,1.513H95.01V33.963z"/>
			<path d="M101.42,32.76h2.207l-0.669,3.038c0.595-0.662,1.302-0.992,2.121-0.992c0.801,0,1.426,0.281,1.872,0.843
				c0.405,0.521,0.608,1.19,0.608,2.009c0,1.083-0.285,1.984-0.856,2.703c-0.628,0.786-1.467,1.178-2.517,1.178
				c-1.009,0-1.757-0.488-2.244-1.463l-0.31,1.29h-2.009L101.42,32.76z M105.277,37.745c0-0.364-0.095-0.667-0.285-0.912
				c-0.19-0.244-0.463-0.366-0.818-0.366c-0.488,0-0.897,0.231-1.227,0.694c-0.298,0.414-0.447,0.876-0.447,1.389
				c0,0.389,0.104,0.711,0.31,0.967c0.206,0.256,0.496,0.385,0.868,0.385c0.496,0,0.897-0.244,1.203-0.732
				C105.145,38.741,105.277,38.266,105.277,37.745z"/>
			<path d="M114.912,38.75h-4.576c0.083,0.917,0.628,1.376,1.637,1.376c0.711,0,1.434-0.161,2.17-0.484l-0.248,1.575
				c-0.769,0.24-1.554,0.36-2.356,0.36c-0.959,0-1.724-0.256-2.294-0.769c-0.604-0.537-0.905-1.277-0.905-2.219
				c0-1.157,0.38-2.087,1.141-2.79c0.727-0.678,1.674-1.017,2.839-1.017c0.877,0,1.552,0.24,2.027,0.719
				c0.476,0.479,0.713,1.158,0.713,2.034C115.06,37.898,115.011,38.303,114.912,38.75z M113.213,37.522
				c0.016-0.124,0.024-0.223,0.024-0.298c0-0.347-0.099-0.626-0.297-0.837c-0.198-0.211-0.471-0.316-0.818-0.316
				c-0.38,0-0.707,0.153-0.979,0.459c-0.24,0.256-0.414,0.587-0.521,0.992H113.213z M111.08,33.963l1.19-1.637h2.319v0.273
				l-2.046,1.513h-1.463V33.963z"/>
			<path d="M121.992,35.228l-0.508,1.537c-0.471-0.224-0.926-0.335-1.364-0.335c-0.571,0-1.042,0.166-1.414,0.496
				c-0.372,0.33-0.558,0.777-0.558,1.339c0,0.488,0.15,0.87,0.453,1.147c0.302,0.277,0.701,0.416,1.196,0.416
				c0.397,0,0.818-0.099,1.265-0.297l-0.261,1.686c-0.669,0.174-1.277,0.261-1.823,0.261c-0.934,0-1.695-0.265-2.281-0.794
				c-0.587-0.529-0.881-1.252-0.881-2.17c0-1.149,0.393-2.063,1.178-2.74c0.744-0.645,1.699-0.967,2.864-0.967
				C120.586,34.806,121.297,34.947,121.992,35.228z"/>
			<path d="M126.183,34.819c0.992,0,1.782,0.248,2.369,0.744c0.628,0.538,0.942,1.29,0.942,2.257c0,1.165-0.405,2.087-1.215,2.765
				c-0.752,0.645-1.724,0.967-2.914,0.967c-0.967,0-1.744-0.24-2.331-0.719c-0.628-0.521-0.942-1.252-0.942-2.195
				c0-1.198,0.389-2.141,1.165-2.827C123.992,35.149,124.968,34.819,126.183,34.819z M127.249,37.72
				c0-0.405-0.095-0.736-0.285-0.992c-0.215-0.297-0.517-0.446-0.905-0.446c-0.529,0-0.96,0.265-1.29,0.793
				c-0.281,0.463-0.421,0.976-0.421,1.538c0,0.389,0.104,0.719,0.31,0.992c0.231,0.298,0.537,0.446,0.917,0.446
				c0.529,0,0.951-0.269,1.265-0.806C127.113,38.791,127.249,38.283,127.249,37.72z"/>
			<path d="M131.626,34.98h2.17l-1.389,6.386h-2.17L131.626,34.98z M132.073,32.76h2.183l-0.224,1.141h-2.17L132.073,32.76z"/>
			<path d="M140.145,35.191l-0.483,1.401c-0.719-0.24-1.282-0.359-1.686-0.359c-0.662,0-0.992,0.194-0.992,0.583
				c0,0.215,0.228,0.414,0.682,0.595c0.686,0.273,1.104,0.459,1.253,0.558c0.454,0.306,0.682,0.724,0.682,1.252
				c0,0.777-0.323,1.372-0.967,1.786c-0.546,0.355-1.227,0.533-2.046,0.533c-0.901,0-1.749-0.137-2.542-0.409l0.458-1.538
				c0.587,0.289,1.182,0.434,1.786,0.434c0.744,0,1.116-0.19,1.116-0.571c0-0.248-0.219-0.467-0.657-0.657
				c-0.678-0.289-1.083-0.483-1.215-0.583c-0.439-0.314-0.657-0.752-0.657-1.314c0-0.711,0.343-1.256,1.029-1.637
				c0.562-0.306,1.227-0.459,1.997-0.459C138.579,34.806,139.327,34.935,140.145,35.191z"/>
			<path d="M26.129,45.16h2.194l-1.81,8.605h-1.984l0.235-1.066c-0.62,0.835-1.397,1.252-2.331,1.252
				c-0.802,0-1.426-0.277-1.873-0.831c-0.414-0.513-0.62-1.182-0.62-2.009c0-1.083,0.29-1.988,0.868-2.716
				c0.62-0.785,1.459-1.178,2.517-1.178c0.959,0,1.657,0.417,2.096,1.252L26.129,45.16z M25.013,50.17
				c0-0.364-0.107-0.672-0.322-0.924c-0.215-0.252-0.504-0.378-0.868-0.378c-0.504,0-0.91,0.252-1.215,0.756
				c-0.256,0.422-0.384,0.901-0.384,1.439c0,0.347,0.099,0.641,0.298,0.88c0.198,0.24,0.467,0.36,0.806,0.36
				c0.504,0,0.922-0.236,1.252-0.707C24.868,51.174,25.013,50.699,25.013,50.17z"/>
			<path d="M30.494,45.173h2.182l-1.835,3.373h-1.711L30.494,45.173z"/>
			<path d="M38.826,51.149H34.25c0.083,0.917,0.628,1.376,1.637,1.376c0.711,0,1.434-0.161,2.17-0.484l-0.248,1.575
				c-0.769,0.24-1.555,0.359-2.356,0.359c-0.959,0-1.724-0.256-2.294-0.769c-0.604-0.538-0.905-1.277-0.905-2.22
				c0-1.157,0.38-2.087,1.141-2.79c0.727-0.678,1.674-1.017,2.839-1.017c0.876,0,1.552,0.24,2.028,0.719
				c0.475,0.48,0.713,1.158,0.713,2.034C38.975,50.298,38.925,50.703,38.826,51.149z M37.127,49.922
				c0.017-0.124,0.025-0.223,0.025-0.298c0-0.347-0.099-0.626-0.298-0.837c-0.198-0.21-0.471-0.316-0.818-0.316
				c-0.38,0-0.707,0.153-0.979,0.458c-0.24,0.256-0.414,0.587-0.521,0.992H37.127z"/>
			<path d="M40.327,47.392h2.368l0.682,1.873l1.414-1.873h2.542l-2.678,3.063l1.451,3.311h-2.356l-0.756-2.009l-1.463,2.009h-2.654
				l2.815-3.397L40.327,47.392z"/>
			<path d="M49.577,52.699l-0.682,3.435h-2.232l1.823-8.804h1.997l-0.248,1.128c0.62-0.835,1.397-1.252,2.331-1.252
				c0.802,0,1.426,0.281,1.873,0.843c0.413,0.513,0.62,1.182,0.62,2.009c0,1.083-0.285,1.984-0.855,2.703
				c-0.62,0.786-1.459,1.178-2.518,1.178C50.726,53.94,50.023,53.526,49.577,52.699z M52.776,50.145
				c0-0.364-0.095-0.667-0.285-0.912c-0.19-0.244-0.463-0.366-0.818-0.366c-0.488,0-0.897,0.231-1.228,0.694
				c-0.298,0.414-0.446,0.877-0.446,1.389c0,0.389,0.103,0.711,0.31,0.967c0.207,0.256,0.496,0.384,0.868,0.384
				c0.496,0,0.897-0.244,1.203-0.732C52.643,51.141,52.776,50.666,52.776,50.145z"/>
			<path d="M61.592,47.355l-0.496,1.86c-0.414-0.116-0.736-0.173-0.967-0.173c-0.537,0-0.951,0.203-1.24,0.607
				c-0.207,0.29-0.376,0.744-0.508,1.364l-0.595,2.752h-2.232l1.302-6.398h2.021l-0.235,1.166c0.612-0.876,1.314-1.314,2.108-1.314
				C60.997,47.219,61.278,47.264,61.592,47.355z"/>
			<path d="M68.04,51.149h-4.575c0.083,0.917,0.628,1.376,1.637,1.376c0.711,0,1.434-0.161,2.17-0.484l-0.248,1.575
				c-0.769,0.24-1.554,0.359-2.356,0.359c-0.959,0-1.724-0.256-2.294-0.769c-0.604-0.538-0.905-1.277-0.905-2.22
				c0-1.157,0.38-2.087,1.141-2.79c0.728-0.678,1.674-1.017,2.84-1.017c0.876,0,1.552,0.24,2.027,0.719
				c0.475,0.48,0.713,1.158,0.713,2.034C68.189,50.298,68.14,50.703,68.04,51.149z M66.341,49.922
				c0.017-0.124,0.025-0.223,0.025-0.298c0-0.347-0.099-0.626-0.297-0.837c-0.199-0.21-0.472-0.316-0.819-0.316
				c-0.38,0-0.707,0.153-0.979,0.458c-0.24,0.256-0.414,0.587-0.521,0.992H66.341z"/>
			<path d="M74.724,47.591l-0.483,1.401c-0.719-0.24-1.282-0.359-1.687-0.359c-0.662,0-0.992,0.194-0.992,0.583
				c0,0.215,0.228,0.414,0.682,0.595c0.686,0.273,1.104,0.459,1.253,0.558c0.455,0.306,0.682,0.724,0.682,1.252
				c0,0.777-0.323,1.373-0.967,1.786c-0.545,0.355-1.227,0.533-2.046,0.533c-0.901,0-1.749-0.136-2.542-0.409l0.458-1.538
				c0.587,0.29,1.182,0.434,1.786,0.434c0.744,0,1.116-0.19,1.116-0.57c0-0.248-0.219-0.467-0.657-0.657
				c-0.678-0.29-1.083-0.484-1.215-0.583c-0.438-0.314-0.657-0.752-0.657-1.314c0-0.711,0.343-1.256,1.029-1.637
				c0.562-0.306,1.228-0.459,1.997-0.459C73.157,47.206,73.905,47.335,74.724,47.591z"/>
			<path d="M80.924,47.591l-0.484,1.401c-0.719-0.24-1.281-0.359-1.686-0.359c-0.662,0-0.992,0.194-0.992,0.583
				c0,0.215,0.227,0.414,0.682,0.595c0.686,0.273,1.104,0.459,1.253,0.558c0.455,0.306,0.682,0.724,0.682,1.252
				c0,0.777-0.322,1.373-0.967,1.786c-0.546,0.355-1.228,0.533-2.046,0.533c-0.901,0-1.748-0.136-2.542-0.409l0.459-1.538
				c0.587,0.29,1.182,0.434,1.786,0.434c0.744,0,1.116-0.19,1.116-0.57c0-0.248-0.219-0.467-0.657-0.657
				c-0.678-0.29-1.083-0.484-1.215-0.583c-0.438-0.314-0.657-0.752-0.657-1.314c0-0.711,0.343-1.256,1.029-1.637
				c0.562-0.306,1.228-0.459,1.996-0.459C79.357,47.206,80.105,47.335,80.924,47.591z"/>
			<path d="M82.709,47.38h2.17l-1.389,6.386h-2.17L82.709,47.38z M83.156,45.16h2.182l-0.223,1.141h-2.17L83.156,45.16z"/>
			<path d="M89.641,47.219c0.992,0,1.782,0.248,2.369,0.744c0.628,0.538,0.942,1.29,0.942,2.257c0,1.166-0.405,2.088-1.215,2.766
				c-0.752,0.645-1.724,0.967-2.914,0.967c-0.967,0-1.744-0.24-2.331-0.719c-0.628-0.521-0.942-1.252-0.942-2.195
				c0-1.198,0.389-2.141,1.165-2.827C87.45,47.549,88.426,47.219,89.641,47.219z M90.707,50.12c0-0.405-0.095-0.735-0.285-0.992
				c-0.215-0.298-0.517-0.447-0.905-0.447c-0.529,0-0.959,0.265-1.29,0.794c-0.281,0.463-0.421,0.976-0.421,1.538
				c0,0.389,0.103,0.719,0.31,0.992c0.231,0.298,0.537,0.447,0.917,0.447c0.529,0,0.951-0.269,1.265-0.806
				C90.571,51.191,90.707,50.683,90.707,50.12z"/>
			<path d="M100.317,53.766h-2.219c0.157-0.636,0.31-1.273,0.459-1.909c0.19-0.819,0.285-1.459,0.285-1.922
				c0-0.628-0.269-0.942-0.806-0.942c-0.876,0-1.463,0.694-1.761,2.083l-0.571,2.69h-2.232l1.364-6.436h1.996l-0.248,1.141
				c0.728-0.827,1.537-1.24,2.431-1.24c0.678,0,1.194,0.201,1.55,0.602c0.356,0.401,0.533,0.944,0.533,1.63
				c0,0.587-0.095,1.311-0.285,2.17C100.647,52.344,100.482,53.055,100.317,53.766z"/>
			<path d="M111.836,53.766h-1.848l0.124-0.967c-0.496,0.736-1.232,1.104-2.207,1.104c-0.612,0-1.112-0.161-1.5-0.484
				c-0.421-0.347-0.632-0.818-0.632-1.414c0-0.851,0.422-1.471,1.268-1.86c0.638-0.297,1.475-0.446,2.511-0.446
				c0.34,0,0.68,0.017,1.02,0.049v-0.211c0.041-0.662-0.368-0.992-1.228-0.992c-0.744,0-1.438,0.161-2.084,0.483l0.261-1.488
				c0.694-0.248,1.401-0.372,2.12-0.372c0.794,0,1.451,0.141,1.972,0.422c0.661,0.347,0.992,0.884,0.992,1.612
				c0,0.554-0.112,1.314-0.335,2.282C112.014,52.559,111.87,53.319,111.836,53.766z M110.299,50.852
				c-0.149-0.017-0.359-0.025-0.632-0.025c-1.207,0-1.811,0.331-1.811,0.992c0,0.223,0.079,0.399,0.236,0.527
				c0.157,0.128,0.351,0.192,0.582,0.192c0.439,0,0.81-0.178,1.116-0.533C110.063,51.699,110.232,51.315,110.299,50.852z"/>
			<path d="M120.033,53.766h-2.22c0.157-0.636,0.31-1.273,0.459-1.909c0.19-0.819,0.285-1.459,0.285-1.922
				c0-0.628-0.269-0.942-0.806-0.942c-0.876,0-1.463,0.694-1.761,2.083l-0.57,2.69h-2.232l1.364-6.436h1.996l-0.248,1.141
				c0.727-0.827,1.538-1.24,2.431-1.24c0.678,0,1.194,0.201,1.55,0.602c0.355,0.401,0.533,0.944,0.533,1.63
				c0,0.587-0.095,1.311-0.285,2.17C120.363,52.344,120.198,53.055,120.033,53.766z"/>
			<path d="M127.584,47.392h2.207l-1.352,6.374c-0.355,1.687-1.658,2.53-3.906,2.53c-0.818,0-1.653-0.149-2.504-0.446l0.409-1.649
				c0.562,0.364,1.228,0.546,1.996,0.546c1.339,0,2.112-0.756,2.319-2.27c-0.653,0.86-1.447,1.29-2.381,1.29
				c-0.793,0-1.413-0.272-1.86-0.818c-0.414-0.504-0.62-1.161-0.62-1.972c0-1.042,0.298-1.917,0.893-2.628
				c0.628-0.752,1.451-1.128,2.467-1.128c0.959,0,1.658,0.417,2.096,1.252L127.584,47.392z M126.939,50.17
				c0-0.364-0.107-0.672-0.322-0.924c-0.215-0.252-0.504-0.378-0.868-0.378c-0.504,0-0.909,0.252-1.215,0.756
				c-0.256,0.422-0.384,0.901-0.384,1.439c0,0.347,0.099,0.641,0.298,0.88c0.198,0.24,0.467,0.36,0.806,0.36
				c0.504,0,0.922-0.236,1.252-0.707C126.795,51.174,126.939,50.699,126.939,50.17z"/>
			<path d="M131.986,45.173h2.207l-1.86,8.593h-2.207L131.986,45.173z"/>
			<path d="M140.331,53.766h-1.848l0.124-0.967c-0.496,0.736-1.232,1.104-2.207,1.104c-0.612,0-1.112-0.161-1.5-0.484
				c-0.422-0.347-0.633-0.818-0.633-1.414c0-0.851,0.423-1.471,1.268-1.86c0.638-0.297,1.476-0.446,2.511-0.446
				c0.34,0,0.68,0.017,1.02,0.049v-0.211c0.041-0.662-0.368-0.992-1.228-0.992c-0.744,0-1.438,0.161-2.083,0.483l0.26-1.488
				c0.694-0.248,1.401-0.372,2.121-0.372c0.793,0,1.451,0.141,1.972,0.422c0.661,0.347,0.992,0.884,0.992,1.612
				c0,0.554-0.111,1.314-0.335,2.282C140.509,52.559,140.364,53.319,140.331,53.766z M138.794,50.852
				c-0.149-0.017-0.36-0.025-0.633-0.025c-1.207,0-1.81,0.331-1.81,0.992c0,0.223,0.078,0.399,0.235,0.527
				c0.157,0.128,0.352,0.192,0.583,0.192c0.438,0,0.81-0.178,1.116-0.533C138.558,51.699,138.727,51.315,138.794,50.852z"/>
			<path d="M143.295,47.38h2.17l-1.389,6.386h-2.17L143.295,47.38z M143.741,45.16h2.183l-0.223,1.141h-2.17L143.741,45.16z"/>
			<path d="M151.813,47.591l-0.483,1.401c-0.719-0.24-1.282-0.359-1.687-0.359c-0.662,0-0.992,0.194-0.992,0.583
				c0,0.215,0.228,0.414,0.682,0.595c0.686,0.273,1.104,0.459,1.252,0.558c0.455,0.306,0.682,0.724,0.682,1.252
				c0,0.777-0.323,1.373-0.967,1.786c-0.546,0.355-1.228,0.533-2.046,0.533c-0.901,0-1.749-0.136-2.542-0.409l0.459-1.538
				c0.587,0.29,1.182,0.434,1.786,0.434c0.744,0,1.116-0.19,1.116-0.57c0-0.248-0.219-0.467-0.657-0.657
				c-0.678-0.29-1.083-0.484-1.215-0.583c-0.438-0.314-0.657-0.752-0.657-1.314c0-0.711,0.343-1.256,1.029-1.637
				c0.562-0.306,1.228-0.459,1.997-0.459C150.247,47.206,150.995,47.335,151.813,47.591z"/>
			<path d="M158.906,51.149h-4.576c0.083,0.917,0.629,1.376,1.637,1.376c0.71,0,1.434-0.161,2.17-0.484l-0.248,1.575
				c-0.769,0.24-1.554,0.359-2.356,0.359c-0.959,0-1.724-0.256-2.294-0.769c-0.604-0.538-0.905-1.277-0.905-2.22
				c0-1.157,0.38-2.087,1.141-2.79c0.727-0.678,1.674-1.017,2.84-1.017c0.876,0,1.552,0.24,2.027,0.719
				c0.475,0.48,0.713,1.158,0.713,2.034C159.055,50.298,159.005,50.703,158.906,51.149z M157.207,49.922
				c0.017-0.124,0.025-0.223,0.025-0.298c0-0.347-0.099-0.626-0.298-0.837c-0.198-0.21-0.471-0.316-0.818-0.316
				c-0.38,0-0.707,0.153-0.979,0.458c-0.24,0.256-0.414,0.587-0.521,0.992H157.207z"/>
		</g>
	</g>
	<g>
		<g>
			<g>
				<rect x="182.1" y="55.442" class="st1" width="20.166" height="12.359"/>
			</g>
		</g>
		<path class="st2" d="M192.182,56.089c-0.145,0.271-0.477,0.66-1.029,1.357c-0.643,0.803-0.531,1.873-0.225,2.508
			c0.348,0.729,0.551,1.336,0.709,1.912c0.223,0.836,0.074,1.953,0.09,1.852h-0.559c0-1.363-0.424-2.647-1.453-3.217
			c-1.461-0.81-2.904,0.596-2.447,2.055c0.242,0.764,0.676,1.023,0.795,1.023c0,0-0.201-0.844,0.41-1.273
			c0.572-0.406,1.281-0.162,1.609,0.32c0.313,0.463,0.359,1.092,0.359,1.092h-1.051v0.779l2.113-0.002c0,0-0.057,1.096-1.213,0.988
			c0,0,0.143,0.865,1.213,0.412c0,0-0.057,0.906,0.678,1.361l0,0l0,0c0.736-0.455,0.68-1.361,0.68-1.361
			c1.072,0.453,1.217-0.412,1.217-0.412c-1.16,0.107-1.217-0.988-1.217-0.988l2.113,0.002v-0.779h-1.053
			c0,0,0.051-0.629,0.361-1.092c0.328-0.482,1.039-0.727,1.611-0.32c0.609,0.43,0.412,1.273,0.412,1.273
			c0.119,0,0.549-0.26,0.791-1.023c0.461-1.459-0.984-2.865-2.447-2.055c-1.029,0.57-1.451,1.854-1.451,3.217h-0.56
			c0.016,0.102-0.133-1.016,0.092-1.852c0.154-0.576,0.359-1.184,0.711-1.912c0.305-0.635,0.418-1.705-0.227-2.508
			C192.662,56.749,192.332,56.36,192.182,56.089z"/>
		<g>
			<g>
				<rect x="208.141" y="55.442" class="st1" width="20.17" height="12.359"/>
			</g>
		</g>
		<path class="st2" d="M218.223,56.089c-0.15,0.271-0.479,0.66-1.031,1.357c-0.649,0.803-0.533,1.873-0.227,2.508
			c0.352,0.729,0.551,1.336,0.709,1.912c0.223,0.836,0.078,1.953,0.094,1.852h-0.561c0-1.363-0.424-2.647-1.453-3.217
			c-1.461-0.81-2.902,0.596-2.445,2.055c0.242,0.764,0.67,1.023,0.791,1.023c0,0-0.197-0.844,0.414-1.273
			c0.57-0.406,1.277-0.162,1.607,0.32c0.311,0.463,0.361,1.092,0.361,1.092h-1.051v0.779l2.109-0.002c0,0-0.055,1.096-1.209,0.988
			c0,0,0.141,0.865,1.209,0.412c0,0-0.055,0.906,0.682,1.361l0,0l0,0c0.73-0.455,0.676-1.361,0.676-1.361
			c1.074,0.453,1.215-0.412,1.215-0.412c-1.16,0.107-1.215-0.988-1.215-0.988l2.115,0.002v-0.779h-1.055
			c0,0,0.055-0.629,0.363-1.092c0.328-0.482,1.039-0.727,1.613-0.32c0.604,0.43,0.41,1.273,0.41,1.273
			c0.121,0,0.549-0.26,0.789-1.023c0.457-1.459-0.988-2.865-2.447-2.055c-1.025,0.57-1.453,1.854-1.453,3.217h-0.555
			c0.014,0.102-0.133-1.016,0.09-1.852c0.154-0.576,0.359-1.184,0.709-1.912c0.305-0.635,0.418-1.705-0.227-2.508
			C218.701,56.749,218.369,56.36,218.223,56.089z"/>
	</g>
	<g>
		<g>
			<g>
				<rect x="182.1" y="73.689" class="st1" width="20.166" height="12.355"/>
			</g>
		</g>
		<path class="st2" d="M192.182,74.335c-0.145,0.272-0.477,0.66-1.029,1.357c-0.643,0.799-0.531,1.871-0.225,2.504
			c0.348,0.732,0.551,1.336,0.709,1.914c0.223,0.836,0.074,1.953,0.09,1.851h-0.559c0-1.363-0.424-2.646-1.453-3.217
			c-1.461-0.814-2.904,0.596-2.447,2.055c0.242,0.764,0.676,1.021,0.795,1.021c0,0-0.201-0.842,0.41-1.273
			c0.572-0.402,1.281-0.16,1.609,0.32c0.313,0.463,0.359,1.094,0.359,1.094h-1.051v0.777l2.113-0.002c0,0-0.057,1.098-1.213,0.992
			c0,0,0.143,0.863,1.213,0.408c0,0-0.057,0.908,0.678,1.365l0,0l0,0c0.736-0.457,0.68-1.365,0.68-1.365
			c1.072,0.455,1.217-0.408,1.217-0.408c-1.16,0.105-1.217-0.992-1.217-0.992l2.113,0.002v-0.777h-1.053
			c0,0,0.051-0.631,0.361-1.094c0.328-0.48,1.039-0.723,1.611-0.32c0.609,0.432,0.412,1.273,0.412,1.273
			c0.119,0,0.549-0.258,0.791-1.021c0.461-1.459-0.984-2.869-2.447-2.055c-1.029,0.57-1.451,1.854-1.451,3.217h-0.56
			c0.016,0.102-0.133-1.016,0.092-1.851c0.154-0.578,0.359-1.182,0.711-1.914c0.305-0.633,0.418-1.705-0.227-2.504
			C192.662,74.995,192.332,74.607,192.182,74.335z"/>
		<g>
			<g>
				<rect x="208.141" y="73.689" class="st1" width="20.17" height="12.355"/>
			</g>
		</g>
		<path class="st2" d="M218.223,74.335c-0.15,0.272-0.479,0.66-1.031,1.357c-0.649,0.799-0.533,1.871-0.227,2.504
			c0.352,0.732,0.551,1.336,0.709,1.914c0.223,0.836,0.078,1.953,0.094,1.851h-0.561c0-1.363-0.424-2.646-1.453-3.217
			c-1.461-0.814-2.902,0.596-2.445,2.055c0.242,0.764,0.67,1.021,0.791,1.021c0,0-0.197-0.842,0.414-1.273
			c0.57-0.402,1.277-0.16,1.607,0.32c0.311,0.463,0.361,1.094,0.361,1.094h-1.051v0.777l2.109-0.002c0,0-0.055,1.098-1.209,0.992
			c0,0,0.141,0.863,1.209,0.408c0,0-0.055,0.908,0.682,1.365l0,0l0,0c0.73-0.457,0.676-1.365,0.676-1.365
			c1.074,0.455,1.215-0.408,1.215-0.408c-1.16,0.105-1.215-0.992-1.215-0.992l2.115,0.002v-0.777h-1.055
			c0,0,0.055-0.631,0.363-1.094c0.328-0.48,1.039-0.723,1.613-0.32c0.604,0.432,0.41,1.273,0.41,1.273
			c0.121,0,0.549-0.258,0.789-1.021c0.457-1.459-0.988-2.869-2.447-2.055c-1.025,0.57-1.453,1.854-1.453,3.217h-0.555
			c0.014,0.102-0.133-1.016,0.09-1.851c0.154-0.578,0.359-1.182,0.709-1.914c0.305-0.633,0.418-1.705-0.227-2.504
			C218.701,74.995,218.369,74.607,218.223,74.335z"/>
	</g>
</g>
</svg>
